<svg id="Ebene_1" data-name="Ebene 1" xmlns="http://www.w3.org/2000/svg" viewBox="0 0 115 130"><defs><style>.cls-1{fill:#fff;}</style></defs><path class="cls-1" d="M110.41,85l3.57-.12a.52.52,0,0,1,.55.52V88.5A.55.55,0,0,1,114,89l-8,0a.53.53,0,0,1-.54-.51l.09-26A.67.67,0,0,1,106,62c2.66-.54,5.31-1.11,8-1.73a.42.42,0,0,1,.54.42v3.12a.7.7,0,0,1-.54.66l-3.55.68a.69.69,0,0,0-.54.63c0,2.23,0,4.45,0,6.68a.46.46,0,0,0,.54.46l3-.39A.46.46,0,0,1,114,73v3a.61.61,0,0,1-.54.6l-3,.3a.6.6,0,0,0-.54.58c0,2.33,0,4.66,0,7a.51.51,0,0,0,.54.5M95.18,75l1.45-.13c.62-.06.86-.34.87-.88l0-5.89c0-.62-.33-.83-1-.74l-1.36.18c0,2.49,0,5,0,7.46m-4.4-10a.61.61,0,0,1,.55-.53q2.9-.4,5.77-.87c4-.66,4.81.93,4.79,3.65l0,6.54c0,2.06-.36,3.38-1.83,4.14a.52.52,0,0,0-.31.61q1.65,4.85,3.31,9.91a.51.51,0,0,1-.52.65h-3.6a.54.54,0,0,1-.53-.36q-1.48-5.19-3-10.17h-.25L95.1,88.62a.51.51,0,0,1-.54.48H91.18a.5.5,0,0,1-.54-.46q.08-11.82.14-23.66M80.72,81.21l1.86-.06-.27-3.46c-.23-2.82-.46-5.7-.57-8.21h0c-.18,2.6-.4,5.51-.66,8.27-.11,1.16-.21,2.31-.31,3.46M79.34,65.8c1.6-.14,3.2-.3,4.79-.47a.46.46,0,0,1,.54.34Q86.23,77,87.8,88.6a.5.5,0,0,1-.55.51H83.87a.52.52,0,0,1-.55-.42c-.1-1.26-.21-2.51-.31-3.77a.5.5,0,0,0-.54-.4l-1.68,0a.53.53,0,0,0-.54.42l-.36,3.73a.52.52,0,0,1-.55.41H76c-.32,0-.58-.23-.53-.49q1.68-11.07,3.38-22.4a.57.57,0,0,1,.54-.44M61.53,89.14H57.1a.52.52,0,0,1-.54-.38Q55.09,78,53.59,67.2c0-.25.22-.46.55-.46,1.13,0,2.27,0,3.41,0a.49.49,0,0,1,.54.39q.66,8.09,1.3,16.16,1.05-8.1,2.12-16.21a.52.52,0,0,1,.54-.38l3.75-.1a.49.49,0,0,1,.55.36q1,8.1,2.06,16.26.68-8.16,1.35-16.39a.54.54,0,0,1,.55-.42l3.41-.2c.32,0,.57.18.54.44q-1.52,11.13-3,22.07a.52.52,0,0,1-.55.38H66.25a.51.51,0,0,1-.55-.38q-.89-8-1.78-15.91-.93,8-1.85,15.91a.51.51,0,0,1-.54.39m-13.4,0H44.75a.49.49,0,0,1-.54-.43q0-9.27-.07-18.55a.54.54,0,0,0-.55-.46l-2.06-.11a.52.52,0,0,1-.55-.46c0-.82,0-1.65,0-2.47a.46.46,0,0,1,.54-.4q4.86.31,9.72.44c.3,0,.55.2.55.43v2.43a.49.49,0,0,1-.55.41l-2.06,0c-.3,0-.55.17-.55.4q0,9.21.05,18.4a.49.49,0,0,1-.54.42m-18-.47q-.07-11.47-.14-23a.44.44,0,0,1,.55-.39q3.94.44,7.9.73a.55.55,0,0,1,.55.48V69c0,.24-.24.42-.54.4l-3.43-.25c-.3,0-.55.16-.54.4l0,5.61a.55.55,0,0,0,.55.47l2.76.14a.53.53,0,0,1,.55.46v2.43c0,.24-.24.42-.55.41L35.11,79c-.31,0-.55.17-.55.42,0,3.1,0,6.19,0,9.29a.49.49,0,0,1-.54.44H30.7a.52.52,0,0,1-.55-.46m-8.29-3.8q0-8.23-.1-16.49a1.21,1.21,0,0,0-1.16-1.25.89.89,0,0,0-1.15,1q0,8.36.1,16.72A1,1,0,0,0,20.71,86a1,1,0,0,0,1.15-1.12m-6.78-.16q0-8.6-.08-17.19c0-2.73,1.21-4.56,5.58-3.87s5.63,2.74,5.64,5.28L26.32,85c0,2.53-1.21,4.43-5.59,4.45s-5.63-2-5.65-4.76M4.93,84.35a1.1,1.1,0,0,0,1.16,1.27c.82,0,1.15-.44,1.15-1.19,0-.91,0-1.83,0-2.74,0-7.35-6.76-5.37-6.76-14.26V64.91C.48,61.91,1.9,60,6,61s5.58,3.19,5.59,5.93c0,1,0,2,0,3.07a.44.44,0,0,1-.54.42l-3.35-.46a.64.64,0,0,1-.54-.6c0-1,0-2.09,0-3.13A1.29,1.29,0,0,0,6,64.8c-.82-.15-1.15.26-1.15,1s0,1.52,0,2.28c0,6.49,6.74,4.65,6.78,13.8l0,2.81c0,2.72-1.47,4.77-5.61,4.79S.47,87.24.47,84.25V80.5A.5.5,0,0,1,1,80l3.36.25a.58.58,0,0,1,.54.56c0,1.18,0,2.36,0,3.55"/><path class="cls-1" d="M105,93.73h3.37a.54.54,0,0,1,.54.55v27.84a.41.41,0,0,1-.53.42l-3.34-.7a.68.68,0,0,1-.54-.64q0-13.47,0-26.94a.54.54,0,0,1,.55-.53m-8,22.75c1.19.17,2.37.34,3.56.53a.65.65,0,0,1,.54.6c0,1,0,2,0,3a.42.42,0,0,1-.54.41q-4-.74-8-1.33a.62.62,0,0,1-.54-.57q-.06-12.42-.11-24.86a.52.52,0,0,1,.54-.49h8a.54.54,0,0,1,.55.52c0,1,0,2,0,3a.51.51,0,0,1-.55.5l-3.57-.09a.51.51,0,0,0-.55.49l0,6.35a.56.56,0,0,0,.54.54l3,.22a.57.57,0,0,1,.54.55c0,1,0,1.91,0,2.87a.47.47,0,0,1-.54.46l-3-.3a.47.47,0,0,0-.54.45c0,2.22,0,4.44,0,6.66a.65.65,0,0,0,.55.58M81.65,104.57l1.45.07c.62,0,.87-.21.86-.74,0-1.9,0-3.8,0-5.7,0-.61-.34-.86-1-.87l-1.36,0,0,7.26M77.14,94.19a.5.5,0,0,1,.54-.46h5.78c4,0,4.84,1.7,4.86,4.31l0,6.3c0,2-.33,3.19-1.81,3.72a.44.44,0,0,0-.31.54c1.14,3.28,2.28,6.61,3.41,10,.11.32-.15.59-.51.55-1.2-.16-2.4-.32-3.6-.46a.63.63,0,0,1-.53-.41q-1.55-5.2-3.08-10.24l-.25,0c0,3.26,0,6.53,0,9.79a.45.45,0,0,1-.54.4l-3.38-.31a.56.56,0,0,1-.55-.5q0-11.62-.1-23.23M70,113.93l3.6.19a.54.54,0,0,1,.54.48c0,.86,0,1.72,0,2.58a.46.46,0,0,1-.54.42c-2.69-.19-5.39-.33-8.08-.42a.52.52,0,0,1-.55-.46q0-11.28,0-22.55a.51.51,0,0,1,.55-.44h8a.51.51,0,0,1,.55.45v2.58a.51.51,0,0,1-.55.45l-3.58,0a.48.48,0,0,0-.54.44c0,1.88,0,3.77,0,5.65a.52.52,0,0,0,.55.46l3,.08a.52.52,0,0,1,.55.46c0,.84,0,1.67,0,2.51a.49.49,0,0,1-.55.43l-3-.1a.48.48,0,0,0-.54.43c0,2,0,3.95,0,5.92a.53.53,0,0,0,.55.47M53.82,93.73a.5.5,0,0,1,.54.44q0,9.49,0,19c0,.7.37,1,1.16,1s1.17-.3,1.16-1q0-9.48,0-19a.5.5,0,0,1,.54-.44H60.6a.5.5,0,0,1,.54.44q0,9.51,0,19c0,2.44-1.24,4.16-5.65,4.17s-5.65-1.65-5.65-4.1q0-9.55,0-19.1a.5.5,0,0,1,.54-.44ZM40.06,109.58l1.86-.08c-.09-1.16-.18-2.33-.28-3.49-.23-2.85-.47-5.77-.59-8.33h0c-.18,2.63-.39,5.57-.65,8.38l-.3,3.52m-1.4-15.85h4.77a.51.51,0,0,1,.54.39q1.61,11.4,3.21,22.63c0,.26-.22.5-.55.52-1.13,0-2.26.1-3.4.17a.47.47,0,0,1-.54-.38l-.33-3.77a.49.49,0,0,0-.54-.39l-1.68.1a.55.55,0,0,0-.55.45l-.36,3.84a.56.56,0,0,1-.54.46l-3.4.28c-.33,0-.58-.18-.54-.46q1.68-11.86,3.37-23.44a.51.51,0,0,1,.54-.4M25,105l1.44-.08c.62,0,.87-.3.87-.84l0-5.8c0-.61-.33-.85-.94-.84l-1.37,0L25,105M20.54,94.22a.53.53,0,0,1,.55-.49h5.78c4,0,4.83,1.66,4.81,4.2,0,2,0,4.08,0,6.13s-.36,3.14-1.85,3.86a.5.5,0,0,0-.31.59q1.66,4.63,3.33,9.17c.1.28-.16.61-.53.65-1.2.12-2.4.26-3.6.4a.48.48,0,0,1-.53-.29q-1.49-4.87-3-9.88l-.25,0c0,3.39,0,6.77-.05,10.16a.61.61,0,0,1-.54.55l-3.37.49a.43.43,0,0,1-.54-.41q0-12.57.1-25.15M9.92,117.65l1.56-.26a.8.8,0,0,0,.74-.91l0-6.26c0-.67-.25-.88-.91-.8l-1.39.15c0,2.69,0,5.39,0,8.08m0-12.08,1.44-.12c.62,0,.87-.34.87-1,0-2,0-4,0-6,0-.51-.28-.74-.78-.72l-1.53,0c0,2.59,0,5.17,0,7.76M5.5,94.28A.54.54,0,0,1,6,93.73h5.57c4.1,0,5,1.46,5,4.21,0,2,0,3.9,0,5.85A3.55,3.55,0,0,1,14.92,107a2.93,2.93,0,0,1,1.76,3.06c0,1.92,0,3.84,0,5.77,0,2.75-.92,4.74-4.86,5.5-1.92.37-3.85.77-5.76,1.18a.42.42,0,0,1-.54-.42V94.28"/><path class="cls-1" d="M51.74,127c-8.56.22-18.23.93-24.22,1.43-3.17.27-3.16.43,0,.33,6-.18,15.66-.44,24.2-.51Z"/><path class="cls-1" d="M85.89,128.46c-6-.51-15.65-1.22-24.21-1.44v1.25c8.54.07,18.2.33,24.19.51,3.18.1,3.19-.06,0-.32"/><path class="cls-1" d="M54.89,127.64h.43l-.06-1c-.06-.8-.12-1.63-.15-2.35h0c0,.74-.08,1.57-.14,2.35Zm-.45-4.45h1.33l.79,6.71h-1l-.1-1.3H54.8l-.1,1.3H53.65Z"/><path class="cls-1" d="M58.46,126h1.31v2.74c0,.7-.29,1.23-1.31,1.23s-1.3-.53-1.3-1.23v-4.45c0-.7.28-1.23,1.3-1.23s1.31.53,1.31,1.23v.88h-1v-.9a.27.27,0,0,0-.54,0v4.46c0,.2.09.31.27.31s.27-.11.27-.31V127h-.27Z"/><path class="cls-1" d="M64,20.58c-1.69,0-1.74,1.77-3.21,1.77H54.26c-1.47,0-1.52-1.77-3.22-1.77H41.19v2.54A1.87,1.87,0,0,0,43.06,25H71.94a1.87,1.87,0,0,0,1.87-1.87V20.58Z"/><path class="cls-1" d="M68.08,0H46.93a2.44,2.44,0,0,0-2.44,2.44V19.19h26V2.44A2.43,2.43,0,0,0,68.08,0m-.33,16.43H47.25V2.76h20.5Z"/><path class="cls-1" d="M33.64,29.48c3.12-1.95,3-3.05,1.82-6.71-3.34,2.37-4,3.62-1.82,6.71"/><path class="cls-1" d="M34.1,22a40.41,40.41,0,0,1-2.44-17.7.65.65,0,0,0-.56-.7h0a.65.65,0,0,0-.69.59,41.66,41.66,0,0,0,2.66,18.61c.31-.26.66-.53,1-.8"/><path class="cls-1" d="M36.49,33.91c2.87-2.3,2.61-3.37,1-6.86-3,2.75-3.53,4.06-1,6.86"/><path class="cls-1" d="M43.64,41.63c2.25-2.91,1.74-3.9-.61-6.92-2.31,3.39-2.48,4.77.61,6.92"/><path class="cls-1" d="M31.13,25.79a3.4,3.4,0,0,1,.29-1.06A44.1,44.1,0,0,1,28.52,1,.67.67,0,0,0,28,.24h0a.66.66,0,0,0-.72.61,45.24,45.24,0,0,0,3,24.47,4.15,4.15,0,0,1,.82.47"/><path class="cls-1" d="M39.83,38c2.58-2.63,2.2-3.67.22-6.93-2.69,3.08-3,4.44-.22,6.93"/><path class="cls-1" d="M27.69,24.82a47.38,47.38,0,0,1-3-21.12.71.71,0,0,0-.56-.81h0a.7.7,0,0,0-.69.7,48.82,48.82,0,0,0,2.9,21.21c.49,0,.94,0,1.36,0"/><path class="cls-1" d="M69.83,51.47a43.49,43.49,0,0,1-22.56-7.78,4.55,4.55,0,0,0-1.58-3,7.67,7.67,0,0,1-3.19,4A4.42,4.42,0,0,0,46,45.5a45.71,45.71,0,0,0,23.68,8.15.59.59,0,0,0,.62-.56l0-1a.6.6,0,0,0-.56-.61"/><path class="cls-1" d="M39,38.91c-2.14-3.19-3.21-3.24-7.25-2,3,3.74,4.43,4.2,7.25,2"/><path class="cls-1" d="M35.44,41.55c3.44,3.36,4.89,3.66,7.43,1.11-2.5-2.93-3.57-2.84-7.43-1.11"/><path class="cls-1" d="M32.56,30.18c-1.34-3.62-2.37-3.92-6.6-3.65,2.08,4.38,3.34,5.14,6.6,3.65"/><path class="cls-1" d="M35.5,34.73c-1.75-3.42-2.81-3.59-7-2.82,2.57,4.08,3.91,4.7,7,2.82"/><path class="cls-1" d="M81.36,29.48c-3.13-1.95-3-3.05-1.83-6.71,3.34,2.37,4,3.62,1.83,6.71"/><path class="cls-1" d="M80.9,22a40.56,40.56,0,0,0,2.44-17.7.65.65,0,0,1,.56-.7h0a.64.64,0,0,1,.68.59,41.66,41.66,0,0,1-2.65,18.61c-.31-.26-.66-.53-1-.8"/><path class="cls-1" d="M78.51,33.91c-2.87-2.3-2.61-3.37-1-6.86,3,2.75,3.53,4.06,1,6.86"/><path class="cls-1" d="M71.36,41.63c-2.25-2.91-1.75-3.9.61-6.92,2.3,3.39,2.48,4.77-.61,6.92"/><path class="cls-1" d="M83.87,25.79a3.16,3.16,0,0,0-.3-1.06A44.1,44.1,0,0,0,86.48,1,.67.67,0,0,1,87,.24h0a.66.66,0,0,1,.73.61,45.24,45.24,0,0,1-3,24.47,4.15,4.15,0,0,0-.82.47"/><path class="cls-1" d="M75.16,38C72.58,35.35,73,34.31,75,31.05c2.69,3.08,3,4.44.21,6.93"/><path class="cls-1" d="M87.31,24.82a47.38,47.38,0,0,0,3-21.12.72.72,0,0,1,.55-.81h0a.7.7,0,0,1,.69.7A48.68,48.68,0,0,1,88.66,24.8c-.48,0-.93,0-1.35,0"/><path class="cls-1" d="M45.16,51.47a43.49,43.49,0,0,0,22.57-7.78,4.5,4.5,0,0,1,1.58-3,7.62,7.62,0,0,0,3.19,4A4.44,4.44,0,0,1,69,45.5a45.74,45.74,0,0,1-23.68,8.15.58.58,0,0,1-.62-.56l0-1a.58.58,0,0,1,.55-.61"/><path class="cls-1" d="M76,38.91c2.15-3.19,3.21-3.24,7.26-2-3,3.74-4.43,4.2-7.26,2"/><path class="cls-1" d="M79.56,41.55c-3.45,3.36-4.9,3.66-7.44,1.11,2.51-2.93,3.57-2.84,7.44-1.11"/><path class="cls-1" d="M82.43,30.18c1.34-3.62,2.38-3.92,6.61-3.65-2.08,4.38-3.34,5.14-6.61,3.65"/><path class="cls-1" d="M79.49,34.73c1.76-3.42,2.81-3.59,7-2.82-2.57,4.08-3.91,4.7-7,2.82"/></svg>