<svg data-name="Ebene 1" xmlns="http://www.w3.org/2000/svg" width="160" height="40" viewBox="0 0 571.25 140" svg-inline="" id="logo" role="presentation" focusable="false" tabindex="-1"><path d="M0 0v140h140.28V0zm42.32 108zm0 0a34.15 34.15 0 01-6.45-5.65c-.28-.3-.55-.6-.82-.91-.49-.58-1-1.16-1.45-1.75A46.63 46.63 0 0135.77 39c10-10.82 22.61-15.69 37.33-15 .39 0 .78.09 1.45.18-.46.31-.71.5-1 .66-18.27 11.13-30 27-34 48.12A62.4 62.4 0 0041 103.85c.43 1.35.93 2.67 1.39 4zm74-31.26a46.52 46.52 0 01-48.27 40.46 39.91 39.91 0 01-11.5-17.86C53.64 90.81 53 82 53.51 73.07a66.44 66.44 0 016-25.19C63.08 40.31 67.83 33.63 75 29c2.25-1.45 4.76-2.5 6.91-3.61a46.72 46.72 0 0134.43 51.31zM256.5 70q0 16.6-8.3 25.81T224.69 105q-15.41 0-23.66-9.14t-8.25-26q0-16.83 8.3-25.86t23.7-9q15.16 0 23.44 9.16T256.5 70zm-51.91 0q0 12.55 5.07 19t15 6.49q9.9 0 14.95-6.42T244.69 70q0-12.51-5-19t-14.91-6.47q-10 0-15.09 6.47t-5.1 19zM333.85 104.07h-12.09l-11.54-40.56q-.74-2.65-1.86-7.65t-1.35-7c-.31 2-.81 4.56-1.51 7.72s-1.28 5.52-1.74 7.07l-11.26 40.42h-12.09l-8.79-34-8.93-33.95H274l9.72 39.63Q286 85.23 287 92.53c.34-2.63.85-5.58 1.54-8.83s1.3-5.89 1.86-7.91l11.07-39.72h11L323.85 76a150.91 150.91 0 013.44 16.55 122.08 122.08 0 013.35-16.93l9.67-39.53h11.26zM417.85 104.07h-13.63l-33.44-54.19h-.37l.23 3c.43 5.76.65 11 .65 15.81v35.35H361.2v-68h13.49L408 90h.27c-.06-.72-.18-3.31-.37-7.79s-.28-8-.28-10.49V36.07h10.19zM435.8 36.07H456q14 0 20.3 4.09t6.26 12.93a15.72 15.72 0 01-3.08 9.91 13.77 13.77 0 01-8.84 5v.46c4.77.9 8.29 2.68 10.53 5.33s3.38 6.24 3.38 10.76q0 9.16-6.4 14.35t-17.79 5.19H435.8zm11.12 28.09h10.7q7 0 10.18-2.21t3.2-7.51q0-4.78-3.46-6.93t-11-2.14h-9.63zm0 9v21.56h11.81q7 0 10.54-2.67t3.56-8.45q0-5.3-3.63-7.86t-11-2.55zM498.69 104.07v-68h11.11v68zM551.25 104.07h-11.12V45.6h-20v-9.53h51.12v9.53h-20z" fill="#000000"></path></svg>