<svg xmlns="http://www.w3.org/2000/svg" width="80" height="79.89" viewBox="0 0 80 79.89">
  <g id="Group_560" data-name="Group 560" transform="translate(7518 4651.229)">
    <g id="Group_559" data-name="Group 559" transform="translate(-7518 -4651.229)">
      <path id="Path_2734" data-name="Path 2734" d="M328.186,138.688c-1.554-.147-2.676-1.076-2.561-2.493l1.606.154a1.03,1.03,0,0,0,1.041,1.1c.706.068,1.16-.267,1.211-.8.154-1.618-3.794-1.01-3.527-3.72.128-1.35,1.3-2.06,2.842-1.913s2.508,1.028,2.476,2.387l-1.65-.157a.992.992,0,0,0-.987-.991.872.872,0,0,0-1.112.781c-.142,1.5,3.772,1.029,3.522,3.665A2.371,2.371,0,0,1,328.186,138.688Z" transform="translate(-284.982 -130.998)" fill="#206384"/>
      <path id="Path_2735" data-name="Path 2735" d="M336.079,132.576a3.541,3.541,0,0,1,2.508,3.477l-1.633-.581a1.893,1.893,0,0,0-1.34-1.622,2.5,2.5,0,0,0-1.672,4.684,1.886,1.886,0,0,0,2.069-.416l1.632.582a3.527,3.527,0,0,1-4.142,1.1,3.837,3.837,0,0,1,2.577-7.228Z" transform="translate(-282.561 -130.392)" fill="#206384"/>
      <path id="Path_2736" data-name="Path 2736" d="M342.641,136.178c1.5,1.009,1.665,2.378.961,3.422a2.168,2.168,0,0,1-2.627.837l-.212,3.527-1.445-.974.263-3.351-.589-.4-1.635,2.425-1.249-.842,4.2-6.223Zm-.743,1-1.042-.7-1.233,1.827,1.044.7a1.05,1.05,0,0,0,1.633-.249A1.033,1.033,0,0,0,341.9,137.181Z" transform="translate(-280.222 -129.363)" fill="#206384"/>
      <path id="Path_2737" data-name="Path 2737" d="M342.152,145.657a3.842,3.842,0,1,1,5.425.31A3.768,3.768,0,0,1,342.152,145.657Zm1-.893a2.5,2.5,0,1,0,.343-3.383A2.269,2.269,0,0,0,343.155,144.765Z" transform="translate(-277.936 -127.265)" fill="#206384"/>
      <path id="Path_2738" data-name="Path 2738" d="M351.491,145.476l-5.533,3.047,1.194,2.167-1.047.576-1.92-3.487,6.579-3.623Z" transform="translate(-276.557 -125.028)" fill="#206384"/>
      <path id="Path_2739" data-name="Path 2739" d="M353.532,149.85l-5.976,2.044.8,2.342-1.131.387-1.288-3.767,7.106-2.432Z" transform="translate(-275.762 -123.092)" fill="#206384"/>
      <path id="Path_2740" data-name="Path 2740" d="M347.405,160.923c.113-1.555,1.016-2.7,2.435-2.618l-.116,1.611a1.031,1.031,0,0,0-1.082,1.066c-.051.708.3,1.154.832,1.193,1.621.116.923-3.819,3.639-3.612,1.353.1,2.09,1.253,1.977,2.8s-.97,2.531-2.33,2.529l.121-1.653a.992.992,0,0,0,.968-1.01c.064-.587-.193-1.05-.805-1.093-1.5-.109-.943,3.8-3.585,3.605A2.372,2.372,0,0,1,347.405,160.923Z" transform="translate(-275.101 -118.61)" fill="#206384"/>
      <path id="Path_2741" data-name="Path 2741" d="M353.7,168.682a3.541,3.541,0,0,1-3.416,2.592l.542-1.646a1.9,1.9,0,0,0,1.59-1.381,2.5,2.5,0,0,0-4.725-1.558,1.888,1.888,0,0,0,.465,2.058l-.542,1.647a3.529,3.529,0,0,1-1.205-4.115,3.838,3.838,0,0,1,7.29,2.4Z" transform="translate(-275.647 -116.187)" fill="#206384"/>
      <path id="Path_2742" data-name="Path 2742" d="M350.781,175.285c-.973,1.525-2.339,1.724-3.4,1.047a2.168,2.168,0,0,1-.9-2.606l-3.535-.122.938-1.47,3.359.177.382-.6-2.468-1.574.811-1.271,6.332,4.041Zm-1.023-.717.677-1.061-1.861-1.188-.676,1.063a1.05,1.05,0,0,0,.288,1.627A1.034,1.034,0,0,0,349.758,174.568Z" transform="translate(-277.121 -113.816)" fill="#206384"/>
      <path id="Path_2743" data-name="Path 2743" d="M340.76,175.063a3.843,3.843,0,1,1-.192,5.433A3.771,3.771,0,0,1,340.76,175.063Zm.914.986a2.5,2.5,0,1,0,3.392.267A2.268,2.268,0,0,0,341.674,176.049Z" transform="translate(-278.684 -111.487)" fill="#206384"/>
      <path id="Path_2744" data-name="Path 2744" d="M340.975,184.389l-3.176-5.456-2.138,1.246-.6-1.032,3.439-2,3.777,6.486Z" transform="translate(-280.697 -110.061)" fill="#206384"/>
      <path id="Path_2745" data-name="Path 2745" d="M336.362,186.535l-2.175-5.924-2.322.852-.41-1.121,3.733-1.371,2.586,7.045Z" transform="translate(-282.332 -109.232)" fill="#206384"/>
      <path id="Path_2746" data-name="Path 2746" d="M324.946,180.668c1.555.077,2.718.952,2.669,2.371l-1.611-.08a1.03,1.03,0,0,0-1.087-1.055c-.709-.035-1.147.32-1.173.856-.08,1.622,3.833.837,3.688,3.553-.068,1.352-1.2,2.114-2.749,2.037s-2.548-.911-2.579-2.269l1.654.081a.99.99,0,0,0,1.029.945c.589.051,1.044-.217,1.074-.83.074-1.5-3.812-.855-3.679-3.5A2.366,2.366,0,0,1,324.946,180.668Z" transform="translate(-286.576 -108.465)" fill="#206384"/>
      <path id="Path_2747" data-name="Path 2747" d="M318.026,187.141a3.535,3.535,0,0,1-2.673-3.344l1.657.5a1.891,1.891,0,0,0,1.419,1.551,2.5,2.5,0,0,0,1.435-4.755,1.887,1.887,0,0,0-2.042.518l-1.657-.5a3.523,3.523,0,0,1,4.078-1.308,3.833,3.833,0,0,1-2.215,7.338Z" transform="translate(-289.639 -108.94)" fill="#206384"/>
      <path id="Path_2748" data-name="Path 2748" d="M311.348,184.34c-1.544-.939-1.772-2.3-1.118-3.374a2.166,2.166,0,0,1,2.583-.958l.048-3.531,1.489.906-.108,3.358.606.369,1.521-2.5,1.285.784-3.9,6.409Zm.693-1.038,1.074.654,1.146-1.883-1.074-.654a1.048,1.048,0,0,0-1.618.324A1.031,1.031,0,0,0,312.042,183.3Z" transform="translate(-292.119 -110.364)" fill="#206384"/>
      <path id="Path_2749" data-name="Path 2749" d="M311.35,174.356a3.847,3.847,0,1,1-5.44-.055A3.774,3.774,0,0,1,311.35,174.356Zm-.962.939a2.505,2.505,0,1,0-.185,3.4A2.273,2.273,0,0,0,310.388,175.3Z" transform="translate(-294.466 -111.867)" fill="#206384"/>
      <path id="Path_2750" data-name="Path 2750" d="M301.86,174.814l5.379-3.307-1.3-2.108,1.018-.625,2.085,3.389-6.395,3.934Z" transform="translate(-295.76 -113.859)" fill="#206384"/>
      <path id="Path_2751" data-name="Path 2751" d="M299.71,170.281l5.873-2.332-.913-2.3,1.109-.442,1.47,3.7-6.982,2.771Z" transform="translate(-296.736 -115.477)" fill="#206384"/>
      <path id="Path_2752" data-name="Path 2752" d="M305.36,158.67c-.038,1.56-.885,2.745-2.306,2.731l.039-1.614a1.029,1.029,0,0,0,1.028-1.115c.019-.711-.347-1.14-.885-1.153-1.625-.041-.741,3.857-3.463,3.778-1.356-.033-2.146-1.151-2.108-2.7s.849-2.573,2.207-2.637l-.041,1.657a.993.993,0,0,0-.92,1.054c-.035.59.244,1.039.858,1.054,1.506.038.762-3.835,3.409-3.769A2.369,2.369,0,0,1,305.36,158.67Z" transform="translate(-297.664 -119.674)" fill="#206384"/>
      <path id="Path_2753" data-name="Path 2753" d="M298.731,151.886a3.535,3.535,0,0,1,3.287-2.746l-.464,1.667a1.892,1.892,0,0,0-1.521,1.452,2.5,2.5,0,0,0,4.786,1.332,1.884,1.884,0,0,0-.563-2.031l.465-1.667a3.523,3.523,0,0,1,1.4,4.049,3.834,3.834,0,0,1-7.386-2.056Z" transform="translate(-297.25 -122.767)" fill="#206384"/>
      <path id="Path_2754" data-name="Path 2754" d="M301.861,145.165c.9-1.564,2.256-1.826,3.346-1.2a2.167,2.167,0,0,1,1.019,2.56l3.533-.036L308.889,148l-3.361-.025-.353.613,2.534,1.461-.752,1.3-6.5-3.746Zm1.054.67-.628,1.089,1.909,1.1.628-1.09a1.048,1.048,0,0,0-.362-1.611A1.032,1.032,0,0,0,302.915,145.835Z" transform="translate(-296.398 -125.257)" fill="#206384"/>
      <path id="Path_2755" data-name="Path 2755" d="M311.372,144.919a3.842,3.842,0,1,1-.063-5.432A3.77,3.77,0,0,1,311.372,144.919Zm-.959-.941a2.5,2.5,0,1,0-3.4-.11A2.268,2.268,0,0,0,310.413,143.978Z" transform="translate(-294.448 -127.662)" fill="#206384"/>
      <path id="Path_2756" data-name="Path 2756" d="M310.591,135.43l3.425,5.3,2.076-1.342.648,1-3.341,2.159-4.072-6.3Z" transform="translate(-292.372 -128.987)" fill="#206384"/>
      <path id="Path_2757" data-name="Path 2757" d="M314.807,133.182l2.46,5.821,2.281-.964.465,1.1-3.668,1.551-2.928-6.921Z" transform="translate(-290.517 -130.007)" fill="#206384"/>
    </g>
  </g>
</svg>
